<svg xmlns="http://www.w3.org/2000/svg" width="256" height="272" preserveAspectRatio="xMidYMid">
  <path d="M0.913007831573486,47.1480158419609 L126.7210078315735,2.323015841960906 l129.196,44.028 l-20.919,166.45 l-108.277,59.966 l-106.583,-59.169 L0.913007831573486,47.1480158419609 z" style="fill: rgb(103, 58, 183);" id="svg_1" class=""/>
  <path d="M162.3884596111487,156.5216034787821 C168.75088449811224,155.8672241412243 173.57488123798103,150.41851455502868 173.3560679139337,143.88139894697952 C173.13725372809776,137.34094402781614 167.6534500075996,132.10924778376835 161.07221179658885,132.10924778376835 L160.63458514849435,132.10924778376835 C153.83453361343632,132.32960043703045 148.56954321698544,137.99532336537393 148.79172268773155,144.7527916266852 C149.01053687356753,148.02134985805952 150.3267838263387,150.85588055043863 152.29947247482914,152.81568010669733 C144.84298010584058,167.42236196228762 133.43774515496105,178.10276693783152 116.32989229774745,187.03704809754936 C104.70584402282064,193.1401370213028 92.64080209131173,195.32028837612407 80.57912716829044,193.79451635886065 C70.70895249422938,192.48575768374496 63.030280654494675,188.1287934305171 58.20628391462593,180.93395917379587 C51.187419055520635,170.25355419825203 50.53097822159012,158.7017548336034 56.45240945197149,147.14995717835387 C60.619965357909734,138.86671604507958 67.19783742222164,132.76362712132615 71.36539332815987,129.7120830867992 C70.49013917018209,126.88089085083482 69.17389135562222,122.08322129108274 68.51408523678151,118.59765057226008 C36.71206182742678,141.48423339531087 40.00099742868838,172.4337055530733 49.65235791691347,187.03704809754936 C56.89003610006604,197.93446726994063 71.58420751399585,204.69193553125186 87.816805351443,204.69193553125186 C92.20317544321722,204.69193553125186 96.58954467320272,204.2579088469561 100.97591476497695,203.1661635139884 C129.05137506318687,197.71745392779275 150.3267838263387,181.15431182705797 162.3884596111487,156.5216034787821 zM200.9905345555615,129.49506974465135 C184.32367535493003,110.09739609683794 159.75596484381768,99.41699026659455 131.68387069230664,99.41699026659455 L128.1727547585102,99.41699026659455 C126.2000669718085,95.49405355236192 122.03251020408155,92.87653620213068 117.42732678826007,92.87653620213068 L116.98633313167795,92.87653620213068 C110.1896477433188,93.09354954427855 104.92465820865664,98.76261092903671 105.14347153270388,105.52007919034799 C105.36228485675116,112.0571956530967 110.8460885772493,117.28889189714445 117.42732678826007,117.28889189714445 L117.8649534363546,117.28889189714445 C122.68895103801205,117.07187770029705 126.85650694395031,114.0203336657701 128.61038140660472,109.87704344357584 L132.55912485028438,109.87704344357584 C149.2293501976148,109.87704344357584 165.02095437847984,114.67471300332792 179.27749828252638,124.04636015845571 C190.2451065853114,131.23785510406267 198.13922560239445,140.6128407156052 202.52559569416871,151.94428657229216 C206.2555249520124,161.0989203852721 206.03671076617644,170.03654000140463 202.08796818428542,177.66540094242154 C195.9477236298568,189.2172003070702 185.63992316948995,195.53730257297144 172.03982009937386,195.53730257297144 C163.2670799158254,195.53730257297144 154.93196724216023,192.92312367915494 150.5455980121747,190.95998566648151 C148.13191570710214,193.1401370213028 143.74554561532798,196.62904705123964 140.6754233381136,198.8091992607605 C150.10797050229147,203.1661635139884 159.75596484381768,205.5633290656571 168.96969782215953,205.5633290656571 C190.0262932612641,205.5633290656571 205.5990841180819,194.01152970100847 211.52051534846328,182.4597320457589 C217.8795732269392,169.81952665925678 217.44194657884464,148.02134985805952 200.9905345555615,129.49506974465135 zM89.57067981409742,160.2275277055664 C89.78949399993341,166.76798177003027 95.27329772043153,171.99967801407809 101.85453593144233,171.99967801407809 L102.29216257953682,171.99967801407809 C109.09221411459487,171.77932621551548 114.35383836434687,166.11360328717203 114.13502504029958,159.35613502586077 C113.91621085446363,152.81568010669733 108.43240713396548,147.5873223190643 101.85453593144233,147.5873223190643 L101.41354227486019,147.5873223190643 C100.97591476497695,147.5873223190643 100.31947479283514,147.5873223190643 99.878481136253,147.80433566121215 C90.88692762865732,132.98397977458825 87.1569983708136,116.8548643581492 88.4732461853735,99.41699026659455 C89.35186649005017,86.33941973938197 93.73823658182438,75.00463457158077 101.41354227486019,65.63298827115251 C107.77596630003498,57.56676133472564 120.05645540889225,53.643823765793485 128.39156808255746,53.42681042364562 C151.6430316408986,52.98944442823567 161.51320545317097,81.76210283289203 162.1696462871015,93.31390134284109 C165.02095437847984,93.9682806803989 169.8449519801373,95.49405355236192 173.13725372809776,96.58245957421545 C170.50475896076665,61.27268470681041 148.56954321698544,42.96341793555007 127.51631392457969,42.96341793555007 C107.77596630003498,42.96341793555007 89.57067981409742,57.132733795730374 82.33300163094486,78.05617946080726 C72.24401363283656,105.95410672934324 78.8218856971484,132.76362712132615 91.1057409527046,153.9074254396651 C90.00830732398065,155.43319745692858 89.35186649005017,157.83036215389774 89.57067981409742,160.2275277055664 zM89.57067981409742,160.2275277055664 " fill="#FFF"/>
</svg>
